{
  "accessors": [
    {
      "bufferView": 2,
      "componentType": 5126,
      "count": 17445,
      "max": [
        1.0964734554290771,
        0.2596014440059662,
        1.4769707918167114
      ],
      "min": [
        -1.0964734554290771,
        -1.030045747756958,
        -1.4387763738632202
      ],
      "type": "VEC3"
    },
    {
      "bufferView": 2,
      "byteOffset": 209340,
      "componentType": 5126,
      "count": 17445,
      "max": [
        1.0,
        0.9999465942382813,
        1.0
      ],
      "min": [
        -1.0,
        -0.9999542236328125,
        -1.0
      ],
      "type": "VEC3"
    },
    {
      "bufferView": 3,
      "componentType": 5126,
      "count": 17445,
      "max": [
        1.0,
        0.9999958276748657,
        0.9988824129104614,
        1.0
      ],
      "min": [
        -1.0,
        -0.999920666217804,
        -0.9988137483596802,
        -1.0
      ],
      "type": "VEC4"
    },
    {
      "bufferView": 1,
      "componentType": 5126,
      "count": 17445,
      "max": [
        0.9905816316604614,
        0.9862582087516785
      ],
      "min": [
        0.009538143873214722,
        0.0033337026834487915
      ],
      "type": "VEC2"
    },
    {
      "bufferView": 1,
      "byteOffset": 139560,
      "componentType": 5126,
      "count": 17445,
      "max": [
        0.9905816316604614,
        0.9862582087516785
      ],
      "min": [
        0.009538143873214722,
        0.0033337026834487915
      ],
      "type": "VEC2"
    },
    {
      "bufferView": 1,
      "byteOffset": 279120,
      "componentType": 5126,
      "count": 17445,
      "max": [
        0.9905816316604614,
        0.9862582087516785
      ],
      "min": [
        0.009538143873214722,
        0.0033337026834487915
      ],
      "type": "VEC2"
    },
    {
      "bufferView": 0,
      "componentType": 5125,
      "count": 93168,
      "type": "SCALAR"
    }
  ],
  "asset": {
    "extras": {
      "author": "EverZax (https://sketchfab.com/EverZax)",
      "license": "CC-BY-4.0 (http://creativecommons.org/licenses/by/4.0/)",
      "source": "https://sketchfab.com/3d-models/jason-voorhees-mask-bcf25f549baf433e852ad5053cc1434f",
      "title": "Jason Voorhees Mask"
    },
    "generator": "Sketchfab-16.45.0",
    "version": "2.0"
  },
  "bufferViews": [
    {
      "buffer": 0,
      "byteLength": 372672,
      "name": "floatBufferViews",
      "target": 34963
    },
    {
      "buffer": 0,
      "byteLength": 418680,
      "byteOffset": 372672,
      "byteStride": 8,
      "name": "floatBufferViews",
      "target": 34962
    },
    {
      "buffer": 0,
      "byteLength": 418680,
      "byteOffset": 791352,
      "byteStride": 12,
      "name": "floatBufferViews",
      "target": 34962
    },
    {
      "buffer": 0,
      "byteLength": 279120,
      "byteOffset": 1210032,
      "byteStride": 16,
      "name": "floatBufferViews",
      "target": 34962
    }
  ],
  "buffers": [
    {
      "byteLength": 1489152,
      "uri": "scene.bin"
    }
  ],
  "images": [
    {
      "uri": "textures/Mask_baseColor.jpeg"
    },
    {
      "uri": "textures/Mask_metallicRoughness.png"
    },
    {
      "uri": "textures/Mask_normal.jpeg"
    }
  ],
  "materials": [
    {
      "doubleSided": true,
      "name": "Mask",
      "normalTexture": {
        "index": 2
      },
      "occlusionTexture": {
        "index": 1
      },
      "pbrMetallicRoughness": {
        "baseColorTexture": {
          "index": 0
        },
        "metallicRoughnessTexture": {
          "index": 1
        }
      }
    }
  ],
  "meshes": [
    {
      "name": "Mask_Mask_0",
      "primitives": [
        {
          "attributes": {
            "NORMAL": 1,
            "POSITION": 0,
            "TANGENT": 2,
            "TEXCOORD_0": 3,
            "TEXCOORD_1": 4,
            "TEXCOORD_2": 5
          },
          "indices": 6,
          "material": 0,
          "mode": 4
        }
      ]
    }
  ],
  "nodes": [
    {
      "children": [
        1
      ],
      "matrix": [
        1.0,
        0.0,
        0.0,
        0.0,
        0.0,
        2.220446049250313e-16,
        -1.0,
        0.0,
        0.0,
        1.0,
        2.220446049250313e-16,
        0.0,
        0.0,
        0.0,
        0.0,
        1.0
      ],
      "name": "Sketchfab_model"
    },
    {
      "children": [
        2
      ],
      "matrix": [
        0.009999999776482582,
        0.0,
        0.0,
        0.0,
        0.0,
        0.0,
        0.009999999776482582,
        0.0,
        0.0,
        -0.009999999776482582,
        0.0,
        0.0,
        0.0,
        0.0,
        0.0,
        1.0
      ],
      "name": "Jason Voorhees Mask.fbx"
    },
    {
      "children": [
        3
      ],
      "name": "RootNode"
    },
    {
      "children": [
        4
      ],
      "matrix": [
        100.0,
        0.0,
        0.0,
        0.0,
        0.0,
        -1.629206793918314e-05,
        -99.99999999999868,
        0.0,
        0.0,
        99.99999999999868,
        -1.629206793918314e-05,
        0.0,
        0.0,
        0.0,
        0.0,
        1.0
      ],
      "name": "Mask"
    },
    {
      "mesh": 0,
      "name": "Mask_Mask_0"
    }
  ],
  "samplers": [
    {
      "magFilter": 9729,
      "minFilter": 9987,
      "wrapS": 10497,
      "wrapT": 10497
    }
  ],
  "scene": 0,
  "scenes": [
    {
      "name": "Sketchfab_Scene",
      "nodes": [
        0
      ]
    }
  ],
  "textures": [
    {
      "sampler": 0,
      "source": 0
    },
    {
      "sampler": 0,
      "source": 1
    },
    {
      "sampler": 0,
      "source": 2
    }
  ]
}
